<mxfile host="Electron" modified="2023-08-30T14:41:34.066Z" agent="Mozilla/5.0 (X11; Linux x86_64) AppleWebKit/537.36 (KHTML, like Gecko) draw.io/21.6.8 Chrome/114.0.5735.289 Electron/25.5.0 Safari/537.36" etag="yofQ2yN_mb7AvHmnfCTN" version="21.6.8" type="device">
  <diagram name="Page-1" id="ip5mfq6mZ9e08EdxUCp0">
    <mxGraphModel dx="1304" dy="762" grid="1" gridSize="10" guides="1" tooltips="1" connect="1" arrows="1" fold="1" page="1" pageScale="1" pageWidth="827" pageHeight="1169" math="0" shadow="0">
      <root>
        <mxCell id="0" />
        <mxCell id="1" parent="0" />
        <mxCell id="GM6LKakHsOpX3G1ed7Ud-50" value="&lt;font style=&quot;font-size: 15px;&quot;&gt;HPC&lt;/font&gt;" style="shape=mxgraph.ibm.box;prType=zone;fontStyle=0;verticalAlign=top;align=left;spacingLeft=32;spacingTop=4;fillColor=#DFE0CA;rounded=0;whiteSpace=wrap;html=1;strokeColor=#919191;strokeWidth=1;dashed=0;container=1;spacing=-4;collapsible=0;expand=0;recursiveResize=0;opacity=50;" vertex="1" parent="1">
          <mxGeometry x="460" y="80" width="621.5" height="440" as="geometry" />
        </mxCell>
        <mxCell id="GM6LKakHsOpX3G1ed7Ud-53" style="edgeStyle=orthogonalEdgeStyle;rounded=0;orthogonalLoop=1;jettySize=auto;html=1;" edge="1" parent="GM6LKakHsOpX3G1ed7Ud-50" source="GM6LKakHsOpX3G1ed7Ud-46" target="GM6LKakHsOpX3G1ed7Ud-4">
          <mxGeometry relative="1" as="geometry" />
        </mxCell>
        <mxCell id="GM6LKakHsOpX3G1ed7Ud-58" value="Launch Job" style="edgeLabel;html=1;align=center;verticalAlign=middle;resizable=0;points=[];labelBackgroundColor=none;" vertex="1" connectable="0" parent="GM6LKakHsOpX3G1ed7Ud-53">
          <mxGeometry x="-0.2293" y="-3" relative="1" as="geometry">
            <mxPoint x="3" y="6" as="offset" />
          </mxGeometry>
        </mxCell>
        <mxCell id="GM6LKakHsOpX3G1ed7Ud-56" style="edgeStyle=orthogonalEdgeStyle;rounded=0;orthogonalLoop=1;jettySize=auto;html=1;labelBackgroundColor=#73FFB4;dashed=1;strokeColor=#FF3333;startArrow=none;startFill=0;endArrow=block;endFill=1;" edge="1" parent="GM6LKakHsOpX3G1ed7Ud-50" source="GM6LKakHsOpX3G1ed7Ud-46" target="GM6LKakHsOpX3G1ed7Ud-15">
          <mxGeometry relative="1" as="geometry" />
        </mxCell>
        <mxCell id="GM6LKakHsOpX3G1ed7Ud-70" value="Prepare Mail" style="edgeLabel;html=1;align=center;verticalAlign=middle;resizable=0;points=[];labelBackgroundColor=none;rotation=-90;fontColor=#FF3333;" vertex="1" connectable="0" parent="GM6LKakHsOpX3G1ed7Ud-56">
          <mxGeometry x="0.3706" y="-2" relative="1" as="geometry">
            <mxPoint x="-8" y="-8" as="offset" />
          </mxGeometry>
        </mxCell>
        <mxCell id="GM6LKakHsOpX3G1ed7Ud-46" value="&lt;span style=&quot;&quot;&gt;&lt;b&gt;&lt;font style=&quot;font-size: 14px;&quot;&gt;SLURM&lt;/font&gt;&lt;/b&gt;&lt;/span&gt;" style="image;aspect=fixed;perimeter=ellipsePerimeter;html=1;align=center;shadow=0;dashed=0;fontColor=#4277BB;labelBackgroundColor=none;fontSize=12;spacingTop=3;image=img/lib/ibm/management/management.svg;labelBorderColor=none;imageBackground=none;" vertex="1" parent="GM6LKakHsOpX3G1ed7Ud-50">
          <mxGeometry x="201" y="119.69" width="60" height="60" as="geometry" />
        </mxCell>
        <mxCell id="GM6LKakHsOpX3G1ed7Ud-64" style="edgeStyle=orthogonalEdgeStyle;rounded=0;orthogonalLoop=1;jettySize=auto;html=1;shape=link;strokeColor=#FF8E4D;" edge="1" parent="GM6LKakHsOpX3G1ed7Ud-50" source="GM6LKakHsOpX3G1ed7Ud-4" target="GM6LKakHsOpX3G1ed7Ud-63">
          <mxGeometry relative="1" as="geometry">
            <Array as="points">
              <mxPoint x="385" y="300" />
            </Array>
          </mxGeometry>
        </mxCell>
        <mxCell id="GM6LKakHsOpX3G1ed7Ud-65" value="&lt;font color=&quot;#ad7b4c&quot;&gt;Write&lt;/font&gt;" style="edgeLabel;html=1;align=center;verticalAlign=middle;resizable=0;points=[];labelBackgroundColor=none;fontStyle=1" vertex="1" connectable="0" parent="GM6LKakHsOpX3G1ed7Ud-64">
          <mxGeometry x="0.3104" y="4" relative="1" as="geometry">
            <mxPoint x="11" y="-8" as="offset" />
          </mxGeometry>
        </mxCell>
        <mxCell id="GM6LKakHsOpX3G1ed7Ud-68" value="Generated Graphs&lt;br&gt;Standard Output&lt;br&gt;Errors" style="edgeLabel;html=1;align=center;verticalAlign=middle;resizable=0;points=[];labelBackgroundColor=none;" vertex="1" connectable="0" parent="GM6LKakHsOpX3G1ed7Ud-64">
          <mxGeometry x="0.0653" y="1" relative="1" as="geometry">
            <mxPoint x="40" y="27" as="offset" />
          </mxGeometry>
        </mxCell>
        <mxCell id="GM6LKakHsOpX3G1ed7Ud-4" value="Alpha Node" style="fontColor=#0066CC;verticalAlign=top;verticalLabelPosition=bottom;labelPosition=center;align=center;html=1;outlineConnect=0;fillColor=#CCCCCC;strokeColor=#6881B3;gradientColor=none;gradientDirection=north;strokeWidth=2;shape=mxgraph.networks.server;" vertex="1" parent="GM6LKakHsOpX3G1ed7Ud-50">
          <mxGeometry x="340" y="99.69" width="90" height="100" as="geometry" />
        </mxCell>
        <mxCell id="GM6LKakHsOpX3G1ed7Ud-6" value="Home Storage" style="fontColor=#0066CC;verticalAlign=top;verticalLabelPosition=bottom;labelPosition=center;align=center;html=1;outlineConnect=0;fillColor=#CCCCCC;strokeColor=#6881B3;gradientColor=none;gradientDirection=north;strokeWidth=2;shape=mxgraph.networks.storage;" vertex="1" parent="GM6LKakHsOpX3G1ed7Ud-50">
          <mxGeometry x="490" y="99.69" width="100" height="100" as="geometry" />
        </mxCell>
        <mxCell id="GM6LKakHsOpX3G1ed7Ud-37" style="edgeStyle=orthogonalEdgeStyle;rounded=0;orthogonalLoop=1;jettySize=auto;html=1;strokeColor=#FF8E4D;shape=link;" edge="1" parent="GM6LKakHsOpX3G1ed7Ud-50" source="GM6LKakHsOpX3G1ed7Ud-4" target="GM6LKakHsOpX3G1ed7Ud-6">
          <mxGeometry relative="1" as="geometry" />
        </mxCell>
        <mxCell id="GM6LKakHsOpX3G1ed7Ud-15" value="Mail Server" style="fontColor=#0066CC;verticalAlign=top;verticalLabelPosition=bottom;labelPosition=center;align=center;html=1;outlineConnect=0;fillColor=#CCCCCC;strokeColor=#6881B3;gradientColor=none;gradientDirection=north;strokeWidth=2;shape=mxgraph.networks.mail_server;" vertex="1" parent="GM6LKakHsOpX3G1ed7Ud-50">
          <mxGeometry x="178.5" y="294" width="105" height="105" as="geometry" />
        </mxCell>
        <mxCell id="GM6LKakHsOpX3G1ed7Ud-13" value="Login Node" style="fontColor=#0066CC;verticalAlign=top;verticalLabelPosition=bottom;labelPosition=center;align=center;html=1;outlineConnect=0;fillColor=#CCCCCC;strokeColor=#6881B3;gradientColor=none;gradientDirection=north;strokeWidth=2;shape=mxgraph.networks.server;" vertex="1" parent="GM6LKakHsOpX3G1ed7Ud-50">
          <mxGeometry x="40" y="99.69" width="90" height="100" as="geometry" />
        </mxCell>
        <mxCell id="GM6LKakHsOpX3G1ed7Ud-52" style="edgeStyle=orthogonalEdgeStyle;rounded=0;orthogonalLoop=1;jettySize=auto;html=1;" edge="1" parent="GM6LKakHsOpX3G1ed7Ud-50" source="GM6LKakHsOpX3G1ed7Ud-13" target="GM6LKakHsOpX3G1ed7Ud-46">
          <mxGeometry relative="1" as="geometry" />
        </mxCell>
        <mxCell id="GM6LKakHsOpX3G1ed7Ud-59" value="Submit Job&lt;br&gt;Request" style="edgeLabel;html=1;align=center;verticalAlign=middle;resizable=0;points=[];labelBackgroundColor=none;" vertex="1" connectable="0" parent="GM6LKakHsOpX3G1ed7Ud-52">
          <mxGeometry x="-0.1871" y="1" relative="1" as="geometry">
            <mxPoint x="5" y="17" as="offset" />
          </mxGeometry>
        </mxCell>
        <mxCell id="GM6LKakHsOpX3G1ed7Ud-36" style="edgeStyle=orthogonalEdgeStyle;orthogonalLoop=1;jettySize=auto;html=1;strokeColor=#FF8E4D;rounded=1;shape=link;entryX=0.5;entryY=0;entryDx=0;entryDy=0;entryPerimeter=0;" edge="1" parent="GM6LKakHsOpX3G1ed7Ud-50" source="GM6LKakHsOpX3G1ed7Ud-13" target="GM6LKakHsOpX3G1ed7Ud-6">
          <mxGeometry relative="1" as="geometry">
            <Array as="points">
              <mxPoint x="79" y="60" />
              <mxPoint x="540" y="60" />
            </Array>
          </mxGeometry>
        </mxCell>
        <mxCell id="GM6LKakHsOpX3G1ed7Ud-61" value="Read / Write" style="edgeLabel;html=1;align=center;verticalAlign=middle;resizable=0;points=[];labelBackgroundColor=none;fontColor=#AD7B4C;fontStyle=1" vertex="1" connectable="0" parent="GM6LKakHsOpX3G1ed7Ud-36">
          <mxGeometry x="0.0788" relative="1" as="geometry">
            <mxPoint x="-25" y="-10" as="offset" />
          </mxGeometry>
        </mxCell>
        <mxCell id="GM6LKakHsOpX3G1ed7Ud-66" value="Project Files" style="edgeLabel;html=1;align=center;verticalAlign=middle;resizable=0;points=[];fontColor=default;labelBackgroundColor=none;" vertex="1" connectable="0" parent="GM6LKakHsOpX3G1ed7Ud-36">
          <mxGeometry x="-0.031" y="-2" relative="1" as="geometry">
            <mxPoint x="9" y="8" as="offset" />
          </mxGeometry>
        </mxCell>
        <mxCell id="GM6LKakHsOpX3G1ed7Ud-62" value="Read" style="edgeLabel;html=1;align=center;verticalAlign=middle;resizable=0;points=[];labelBackgroundColor=none;fontColor=#AD7B4C;fontStyle=1" vertex="1" connectable="0" parent="GM6LKakHsOpX3G1ed7Ud-50">
          <mxGeometry x="459.99516129032236" y="140.0022580645161" as="geometry">
            <mxPoint x="-3" y="-1" as="offset" />
          </mxGeometry>
        </mxCell>
        <mxCell id="GM6LKakHsOpX3G1ed7Ud-63" value="Workspace" style="fontColor=#0066CC;verticalAlign=top;verticalLabelPosition=bottom;labelPosition=center;align=center;html=1;outlineConnect=0;fillColor=#CCCCCC;strokeColor=#6881B3;gradientColor=none;gradientDirection=north;strokeWidth=2;shape=mxgraph.networks.storage;" vertex="1" parent="GM6LKakHsOpX3G1ed7Ud-50">
          <mxGeometry x="490" y="250" width="100" height="100" as="geometry" />
        </mxCell>
        <mxCell id="GM6LKakHsOpX3G1ed7Ud-67" value="Project &lt;br&gt;Files" style="edgeLabel;html=1;align=center;verticalAlign=middle;resizable=0;points=[];fontColor=default;labelBackgroundColor=none;" vertex="1" connectable="0" parent="GM6LKakHsOpX3G1ed7Ud-50">
          <mxGeometry x="459.9977419354834" y="169.0022580645161" as="geometry" />
        </mxCell>
        <mxCell id="GM6LKakHsOpX3G1ed7Ud-41" style="edgeStyle=orthogonalEdgeStyle;rounded=0;orthogonalLoop=1;jettySize=auto;html=1;strokeWidth=1;endArrow=blockThin;endFill=1;shadow=0;exitX=1;exitY=0.5;exitDx=0;exitDy=0;" edge="1" parent="1" source="GM6LKakHsOpX3G1ed7Ud-47" target="GM6LKakHsOpX3G1ed7Ud-13">
          <mxGeometry relative="1" as="geometry">
            <mxPoint x="359" y="180" as="sourcePoint" />
            <mxPoint x="484.7999999999997" y="179.70000000000005" as="targetPoint" />
          </mxGeometry>
        </mxCell>
        <mxCell id="GM6LKakHsOpX3G1ed7Ud-1" value="Terminal" style="fontColor=#0066CC;verticalAlign=top;verticalLabelPosition=bottom;labelPosition=center;align=center;html=1;outlineConnect=0;fillColor=#CCCCCC;strokeColor=#6881B3;gradientColor=none;gradientDirection=north;strokeWidth=2;shape=mxgraph.networks.terminal;" vertex="1" parent="1">
          <mxGeometry x="100" y="184.85" width="110" height="89.69" as="geometry" />
        </mxCell>
        <mxCell id="GM6LKakHsOpX3G1ed7Ud-43" value="" style="rounded=0;orthogonalLoop=1;jettySize=auto;html=1;strokeWidth=1;endArrow=blockThin;endFill=1;shadow=0;edgeStyle=elbowEdgeStyle;elbow=horizontal;" edge="1" parent="1" source="GM6LKakHsOpX3G1ed7Ud-1" target="GM6LKakHsOpX3G1ed7Ud-47">
          <mxGeometry relative="1" as="geometry">
            <mxPoint x="130" y="177" as="sourcePoint" />
            <mxPoint x="279" y="180" as="targetPoint" />
          </mxGeometry>
        </mxCell>
        <mxCell id="GM6LKakHsOpX3G1ed7Ud-71" value="Prepare Job File" style="edgeLabel;html=1;align=center;verticalAlign=middle;resizable=0;points=[];" vertex="1" connectable="0" parent="GM6LKakHsOpX3G1ed7Ud-43">
          <mxGeometry x="0.2496" y="1" relative="1" as="geometry">
            <mxPoint x="-19" y="11" as="offset" />
          </mxGeometry>
        </mxCell>
        <mxCell id="GM6LKakHsOpX3G1ed7Ud-47" value="VPN" style="image;aspect=fixed;perimeter=ellipsePerimeter;html=1;align=center;shadow=0;dashed=0;fontColor=#4277BB;labelBackgroundColor=default;fontSize=12;spacingTop=3;image=img/lib/ibm/security/vpn.svg;" vertex="1" parent="1">
          <mxGeometry x="320" y="199.69" width="60" height="60" as="geometry" />
        </mxCell>
        <mxCell id="GM6LKakHsOpX3G1ed7Ud-45" value="" style="sketch=0;outlineConnect=0;fontColor=#232F3E;gradientColor=none;fillColor=#B0084D;strokeColor=none;dashed=0;verticalLabelPosition=bottom;verticalAlign=top;align=center;html=1;fontSize=12;fontStyle=0;aspect=fixed;pointerEvents=1;shape=mxgraph.aws4.email_notification;" vertex="1" parent="1">
          <mxGeometry x="294" y="387.5" width="78" height="78" as="geometry" />
        </mxCell>
        <mxCell id="GM6LKakHsOpX3G1ed7Ud-57" style="edgeStyle=orthogonalEdgeStyle;rounded=0;orthogonalLoop=1;jettySize=auto;html=1;" edge="1" parent="1" source="GM6LKakHsOpX3G1ed7Ud-15" target="GM6LKakHsOpX3G1ed7Ud-45">
          <mxGeometry relative="1" as="geometry" />
        </mxCell>
        <mxCell id="GM6LKakHsOpX3G1ed7Ud-69" value="Email notification for &lt;br&gt;Job completion" style="edgeLabel;html=1;align=center;verticalAlign=middle;resizable=0;points=[];labelBackgroundColor=none;" vertex="1" connectable="0" parent="GM6LKakHsOpX3G1ed7Ud-57">
          <mxGeometry x="-0.0717" y="-1" relative="1" as="geometry">
            <mxPoint x="20" y="19" as="offset" />
          </mxGeometry>
        </mxCell>
      </root>
    </mxGraphModel>
  </diagram>
</mxfile>
